name p4_grf_mean_speed_1.0
datacolumns 13
datarows 34
range 0.0000000000 0.3300000000
endheader
time	grf_x_l_mean	grf_x_l_var	grf_y_l_mean	grf_y_l_var	grf_z_l_mean	grf_z_l_var	grf_x_r_mean	grf_x_r_var	grf_y_r_mean	grf_y_r_var	grf_z_r_mean	grf_z_r_var
0.0000000000	88.6345846370	1.0000000000	808.6464755456	1.0000000000	0.0000000000	0.0000000000	15.5920310152	1.0000000000	10.8047716281	1.0000000000	0.0000000000	0.0000000000
0.0100000000	96.5240972549	1.0000000000	803.0078950531	1.0000000000	0.0000000000	0.0000000000	27.0623274311	1.0000000000	35.2892319019	1.0000000000	0.0000000000	0.0000000000
0.0200000000	105.0252323248	1.0000000000	789.7801356852	1.0000000000	0.0000000000	0.0000000000	35.0019653613	1.0000000000	73.1624684869	1.0000000000	0.0000000000	0.0000000000
0.0300000000	113.3299269895	1.0000000000	767.3353871911	1.0000000000	0.0000000000	0.0000000000	30.5145025998	1.0000000000	123.0483992000	1.0000000000	0.0000000000	0.0000000000
0.0400000000	120.7485448858	1.0000000000	734.4160123125	1.0000000000	0.0000000000	0.0000000000	12.2011066069	1.0000000000	186.1852347392	1.0000000000	0.0000000000	0.0000000000
0.0500000000	127.6338733021	1.0000000000	690.5458335348	1.0000000000	0.0000000000	0.0000000000	-13.7704768683	1.0000000000	265.1923952910	1.0000000000	0.0000000000	0.0000000000
0.0600000000	132.5750144974	1.0000000000	634.5862542509	1.0000000000	0.0000000000	0.0000000000	-43.0707570482	1.0000000000	356.5106732629	1.0000000000	0.0000000000	0.0000000000
0.0700000000	133.5571981382	1.0000000000	564.8242709783	1.0000000000	0.0000000000	0.0000000000	-71.7303321223	1.0000000000	449.3033463834	1.0000000000	0.0000000000	0.0000000000
0.0800000000	128.7500332626	1.0000000000	482.0035886413	1.0000000000	0.0000000000	0.0000000000	-93.6786425261	1.0000000000	531.9756524785	1.0000000000	0.0000000000	0.0000000000
0.0900000000	116.1977857482	1.0000000000	389.7132201229	1.0000000000	0.0000000000	0.0000000000	-106.8831288687	1.0000000000	596.5983052309	1.0000000000	0.0000000000	0.0000000000
0.1000000000	95.3923086257	1.0000000000	294.1549694119	1.0000000000	0.0000000000	0.0000000000	-112.6203294693	1.0000000000	641.1518663450	1.0000000000	0.0000000000	0.0000000000
0.1100000000	69.2856335683	1.0000000000	204.7962149406	1.0000000000	0.0000000000	0.0000000000	-112.1251293489	1.0000000000	670.7767211005	1.0000000000	0.0000000000	0.0000000000
0.1200000000	42.6950877116	1.0000000000	130.6144698725	1.0000000000	0.0000000000	0.0000000000	-108.7769972630	1.0000000000	693.5060917722	1.0000000000	0.0000000000	0.0000000000
0.1300000000	20.9743859883	1.0000000000	75.0809830932	1.0000000000	0.0000000000	0.0000000000	-105.0920673682	1.0000000000	713.8948976657	1.0000000000	0.0000000000	0.0000000000
0.1400000000	6.7848566370	1.0000000000	37.0623212037	1.0000000000	0.0000000000	0.0000000000	-100.7677685611	1.0000000000	733.1207305055	1.0000000000	0.0000000000	0.0000000000
0.1500000000	-0.8623847071	1.0000000000	14.0086147634	1.0000000000	0.0000000000	0.0000000000	-96.1998594485	1.0000000000	751.2146023462	1.0000000000	0.0000000000	0.0000000000
0.1600000000	-3.6141273041	1.0000000000	2.1920340352	1.0000000000	0.0000000000	0.0000000000	-91.1440384773	1.0000000000	766.4478435275	1.0000000000	0.0000000000	0.0000000000
0.1700000000	0.0000000000	1.0000000000	0.0000000000	1.0000000000	0.0000000000	0.0000000000	-84.5613745665	1.0000000000	775.5270253712	1.0000000000	0.0000000000	0.0000000000
0.1800000000	0.0000000000	1.0000000000	0.0000000000	1.0000000000	0.0000000000	0.0000000000	-76.9504971094	1.0000000000	775.7759229412	1.0000000000	0.0000000000	0.0000000000
0.1900000000	0.0000000000	1.0000000000	0.0000000000	1.0000000000	0.0000000000	0.0000000000	-68.6885733244	1.0000000000	767.1535550209	1.0000000000	0.0000000000	0.0000000000
0.2000000000	0.0000000000	1.0000000000	0.0000000000	1.0000000000	0.0000000000	0.0000000000	-59.8831480177	1.0000000000	752.0613897961	1.0000000000	0.0000000000	0.0000000000
0.2100000000	0.0000000000	1.0000000000	0.0000000000	1.0000000000	0.0000000000	0.0000000000	-51.6299182757	1.0000000000	733.7475865724	1.0000000000	0.0000000000	0.0000000000
0.2200000000	-0.1528057331	1.0000000000	0.1604610191	1.0000000000	0.0000000000	0.0000000000	-44.2311676069	1.0000000000	715.4134340890	1.0000000000	0.0000000000	0.0000000000
0.2300000000	-0.2351173642	1.0000000000	0.3069985442	1.0000000000	0.0000000000	0.0000000000	-37.5883642265	1.0000000000	699.6144448180	1.0000000000	0.0000000000	0.0000000000
0.2400000000	-0.4313488046	1.0000000000	0.2327849313	1.0000000000	0.0000000000	0.0000000000	-32.2109326970	1.0000000000	687.7562429960	1.0000000000	0.0000000000	0.0000000000
0.2500000000	-0.4462967580	1.0000000000	0.1659483442	1.0000000000	0.0000000000	0.0000000000	-28.0589273988	1.0000000000	680.2994673775	1.0000000000	0.0000000000	0.0000000000
0.2600000000	-0.4337368743	1.0000000000	0.1147480382	1.0000000000	0.0000000000	0.0000000000	-24.5994858576	1.0000000000	676.5475526280	1.0000000000	0.0000000000	0.0000000000
0.2700000000	-0.4719432834	1.0000000000	0.0176167211	1.0000000000	0.0000000000	0.0000000000	-21.6643907772	1.0000000000	675.0595903581	1.0000000000	0.0000000000	0.0000000000
0.2800000000	0.0000000000	1.0000000000	0.0000000000	1.0000000000	0.0000000000	0.0000000000	-19.0477947809	1.0000000000	675.1622132240	1.0000000000	0.0000000000	0.0000000000
0.2900000000	-0.3012030894	1.0000000000	0.0059452459	1.0000000000	0.0000000000	0.0000000000	-16.5028660070	1.0000000000	676.5941960717	1.0000000000	0.0000000000	0.0000000000
0.3000000000	-0.2460197824	1.0000000000	0.0489478278	1.0000000000	0.0000000000	0.0000000000	-13.8460095061	1.0000000000	678.5282193013	1.0000000000	0.0000000000	0.0000000000
0.3100000000	-0.1980092292	1.0000000000	0.0664319286	1.0000000000	0.0000000000	0.0000000000	-11.0548417714	1.0000000000	680.5427583456	1.0000000000	0.0000000000	0.0000000000
0.3200000000	-0.1887208910	1.0000000000	0.0987659598	1.0000000000	0.0000000000	0.0000000000	-8.1913456151	1.0000000000	683.1394716206	1.0000000000	0.0000000000	0.0000000000
0.3300000000	-0.1886998275	1.0000000000	0.1042402677	1.0000000000	0.0000000000	0.0000000000	-5.1681313730	1.0000000000	686.8913599104	1.0000000000	0.0000000000	0.0000000000
